<?xml version="1.0" ?><svg style="enable-background:new 0 0 24 24;" version="1.1" viewBox="0 0 24 24" xml:space="preserve" xmlns="http://www.w3.org/2000/svg" xmlns:xlink="http://www.w3.org/1999/xlink"><style type="text/css">
	.st0{opacity:0.2;fill:none;stroke:#FFFFFF;stroke-width:5.000000e-02;stroke-miterlimit:10;}
</style><g id="Layer_1"/><g id="Layer_2"><g><path d="M15,2H6c0,0,0,0,0,0C5.9,2,5.8,2,5.7,2.1c0,0,0,0,0,0c-0.1,0-0.1,0.1-0.2,0.1c0,0,0,0,0,0c0,0,0,0-0.1,0.1    C5.3,2.3,5.2,2.4,5.2,2.4c0,0,0,0,0,0.1C5.1,2.6,5,2.7,5,2.8c0,0,0,0,0,0c0,0,0,0,0,0C5,2.9,5,3,5,3v14.8c0,0.4,0.2,0.8,0.6,0.9    l6.6,2.7c0.2,0.1,0.5,0.1,0.8,0.1c0.4,0,0.8-0.1,1.1-0.3c0.6-0.4,0.9-1,0.9-1.7V19c1.7,0,3-1.3,3-3V5C18,3.3,16.7,2,15,2z M13,18    v1.6l-6-2.4V4.5l4.8,1.9c0.8,0.3,1.2,1,1.2,1.9V18z M16,16c0,0.6-0.4,1-1,1V8.3c0-1.6-1-3.1-2.5-3.7L11.1,4H15c0.6,0,1,0.4,1,1V16    z"/><circle cx="11" cy="13" r="1"/></g></g></svg>
